<svg width="505" height="287" viewBox="0 0 505 287" fill="none" xmlns="http://www.w3.org/2000/svg">
<rect width="505" height="287" fill="url(#paint0_radial_5423_29235)" fill-opacity="0.3"/>
<g filter="url(#filter0_d_5423_29235)">
<path d="M388.92 157.233L388.921 157.236V157.233H388.92Z" fill="white"/>
<path fill-rule="evenodd" clip-rule="evenodd" d="M308.565 139.796V107.125C313.288 105.995 317.269 105.06 319.66 104.517C321.461 104.108 322.338 101.124 322.803 96.3891C323.298 91.3926 322.367 91.164 317.877 90.839C315.339 90.655 312.131 90.4976 308.565 90.3589V39H372.154L385.57 52.4914V102.093L372.154 115.585L378.024 130.167L365.513 132.987L365.209 131.85L357.582 133.905C357.263 133.147 356.897 132.41 356.484 131.699H351.479L349.398 125.911H334.883V123.718C332.016 123.087 329.095 122.741 326.16 122.686C323.281 122.728 320.415 123.074 317.609 123.718V125.911H313.559L308.565 139.796ZM366.115 96.0263H328.017V57.7185H366.115V96.0263Z" fill="white"/>
<path d="M380.552 136.445L388.92 157.233H354.605V155.172H359.922L357.118 147.375C357.633 146.358 358.065 145.302 358.411 144.216L367.83 141.678L367.527 140.541L380.552 136.445Z" fill="white"/>
<path d="M279.703 89.5443L266.514 39.0027H248.736L235.618 89.5463C242.052 89.3711 246.959 89.1943 248.221 88.9635C250.609 88.5275 250.922 87.9878 251.054 86.2738C251.084 85.8863 251.097 84.8653 251.116 83.485C251.179 78.7596 251.298 69.8235 252.313 67.6802C253.503 65.4759 254.927 63.4068 256.562 61.5087H258.844C260.478 63.4069 261.903 65.4761 263.093 67.6802C264.111 69.8291 264.23 78.8068 264.292 83.5222C264.31 84.8839 264.323 85.8901 264.352 86.2738C264.481 87.9865 264.797 88.5275 267.185 88.9635C268.442 89.1932 273.311 89.3697 279.703 89.5443Z" fill="white"/>
<path d="M229.609 112.696C238.546 114.939 245.964 116.894 247.276 117.487C249.632 118.553 250.837 119.318 251.054 121.285C251.226 122.843 253.181 145.323 253.181 145.323C249.286 146.129 245.446 147.177 241.683 148.461C241.283 148.613 240.913 148.746 240.571 148.87C238.201 149.724 237.193 150.087 237.193 152.55V156.529C237.193 156.532 237.192 156.538 237.192 156.545C237.188 156.623 237.174 156.908 237.348 157.236H218.049L229.609 112.696Z" fill="white"/>
<path d="M214.554 108.984L207.642 157.236H178.319L178.342 127.731C178.342 127.731 178.823 127.542 175.942 127.731H175.944C174.539 127.823 170.816 129.874 166.566 132.215C162.109 134.67 157.072 137.445 153.519 138.615C146.692 140.864 133.523 141.548 133.523 141.548C136.858 145.293 139.849 149.331 142.457 153.614C143.083 154.7 143.651 155.939 144.16 157.236H133.571L116.803 39.0027H137.093L146.611 113.798L158.222 48.7823H176.142V69.694C174.219 69.9372 172.414 70.7503 170.958 72.0287V75.1776H157.435L165.088 77.9517H172.736V93.7493C169.967 94.3136 167.333 95.4067 164.978 96.9686V103.964H166.745V117.151H162.251L162.247 117.165L149.739 110.346L148.403 112.672L161.284 120.62L160.035 125.097H159.857L141.373 115.02L140.038 117.346L152.777 125.206L150.858 129.425L133.006 119.693L131.671 122.019L149.283 132.886L147.597 136.594C149.501 136.269 151.381 135.814 153.224 135.233C156.819 134.033 161.918 131.189 166.429 128.671C170.732 126.27 174.502 124.167 175.926 124.072C176.695 124.021 177.02 123.984 177.142 123.96C177.264 123.984 177.588 124.021 178.358 124.072C179.781 124.167 183.548 126.27 187.85 128.669C192.362 131.187 197.463 134.033 201.06 135.233C202.904 135.815 204.785 136.269 206.691 136.594L201.462 125.097H194.258L192.045 117.153V117.154H187.558V103.965H189.311V96.9673C186.96 95.4085 184.332 94.317 181.568 93.7526V77.9497H188.366L194.614 112.954L195.718 104.511C195.728 104.513 195.737 104.515 195.746 104.517C199.359 105.337 206.603 107.054 214.554 108.984Z" fill="white"/>
<path d="M217.271 90.0195L224.579 39.0027H204.288L197.506 90.8406C197.514 90.8401 197.521 90.8395 197.529 90.839C202.386 90.4866 209.693 90.2313 217.271 90.0195Z" fill="white"/>
<path d="M187.871 75.1756L183.16 48.7823H178.171V69.694C180.086 69.9394 181.885 70.7509 183.337 72.0247V75.1756H187.871Z" fill="white"/>
<path d="M278.057 157.236C278.232 156.908 278.218 156.623 278.214 156.545C278.213 156.538 278.213 156.532 278.213 156.529V152.55C278.213 150.087 277.204 149.724 274.836 148.87C274.493 148.746 274.123 148.613 273.723 148.461C269.96 147.177 266.12 146.129 262.225 145.323C262.225 145.323 264.18 122.843 264.352 121.285C264.569 119.318 265.774 118.55 268.129 117.487C269.438 116.895 276.833 114.946 285.748 112.708L297.368 157.236H278.057Z" fill="white"/>
<path d="M436.194 94.5203L429.3 79.7661L422.402 94.5216L406.315 96.5553L418.146 107.71L415.096 123.721L429.3 115.858L443.504 123.722L440.456 107.71L452.282 96.554L436.194 94.5203Z" fill="white"/>
<path d="M78.6862 79.7661L85.5802 94.5203L101.668 96.554L89.8417 107.71L92.8896 123.722L78.6862 115.858L64.4821 123.721L67.53 107.71L55.7039 96.5553L71.7908 94.5216L78.6862 79.7661Z" fill="white"/>
<path d="M38 172.7H88.5889L88.5882 185.417H69.6182V249H56.9707V185.417H38V172.7Z" fill="white"/>
<path d="M151.824 172.7H139.177V204.492H113.882V172.7H101.235V249H113.882V217.209H139.177V249H151.823V172.704L151.824 172.7Z" fill="white"/>
<path d="M202.413 172.7H215.059L215.06 236.283L202.413 249H177.117L164.471 236.283V172.7H177.119V231.07L182.303 236.283H197.229L202.413 231.07V172.7Z" fill="white"/>
<path d="M278.294 172.7H265.647V221.405L240.353 172.827L227.705 172.7V249H240.353V200.422L265.647 248.999H278.293V172.703L278.294 172.7Z" fill="white"/>
<path fill-rule="evenodd" clip-rule="evenodd" d="M328.882 172.7L341.529 185.417V236.283L328.882 249H290.939V172.7H328.882ZM323.697 236.283H303.588V185.417H323.696L328.88 190.631V231.07L323.697 236.283Z" fill="white"/>
<path d="M404.764 249V236.283H366.822V217.209H385.793V204.492H366.822V185.417H404.764V172.7H354.175V249H404.764Z" fill="white"/>
<path fill-rule="evenodd" clip-rule="evenodd" d="M455.352 172.7L467.999 185.417L468 204.492L454.847 217.209L468 249H454.215L440.809 217.209H430.061V249H417.414V172.7H455.352ZM430.058 204.491H450.167L455.35 199.278V190.631L450.166 185.417H430.058V204.491Z" fill="white"/>
<path d="M321.658 133.254L324.282 138.869L330.404 139.64L325.904 143.884L327.064 149.978L321.658 146.987L316.253 149.978L317.413 143.887L312.913 139.643L319.034 138.869L321.658 133.254Z" fill="white"/>
</g>
<defs>
<filter id="filter0_d_5423_29235" x="18" y="19" width="470" height="250" filterUnits="userSpaceOnUse" color-interpolation-filters="sRGB">
<feFlood flood-opacity="0" result="BackgroundImageFix"/>
<feColorMatrix in="SourceAlpha" type="matrix" values="0 0 0 0 0 0 0 0 0 0 0 0 0 0 0 0 0 0 127 0" result="hardAlpha"/>
<feOffset/>
<feGaussianBlur stdDeviation="10"/>
<feComposite in2="hardAlpha" operator="out"/>
<feColorMatrix type="matrix" values="0 0 0 0 0 0 0 0 0 0 0 0 0 0 0 0 0 0 0.5 0"/>
<feBlend mode="normal" in2="BackgroundImageFix" result="effect1_dropShadow_5423_29235"/>
<feBlend mode="normal" in="SourceGraphic" in2="effect1_dropShadow_5423_29235" result="shape"/>
</filter>
<radialGradient id="paint0_radial_5423_29235" cx="0" cy="0" r="1" gradientUnits="userSpaceOnUse" gradientTransform="translate(252.5 143.5) rotate(90) scale(143.5 252.5)">
<stop/>
<stop offset="1" stop-opacity="0"/>
</radialGradient>
</defs>
</svg>
